#!OML:ASF F:\VICON\USERDATA\INSTALL\rory3\rory3.ASF
:FULLY-SPECIFIED
:DEGREES
33
root -0.688383 18.2769 -15.5911 -0.19407 7.99855 -4.30581
lowerback 15.2439 1.08457 3.49836
upperback -0.877107 2.21035 1.30882
thorax -9.45318 0.921426 -1.07794
lowerneck -17.7346 -5.47043 -1.6086
upperneck 14.9334 -7.70945 3.55135
head 7.72235 -3.41546 0.521863
rclavicle -1.78937e-014 4.96962e-015
rhumerus -47.3948 16.2382 -101.47
rradius 110.051
rwrist -8.3439
rhand -18.1728 40.062
rfingers 7.12502
rthumb 8.10357 10.2374
lclavicle -1.78937e-014 4.96962e-015
lhumerus -67.3286 -8.86831 99.082
lradius 103.577
lwrist 32.1452
lhand -24.591 0.137933
lfingers 7.12502
lthumb 1.90661 30.1092
rfemur 0.261913 0.401425 30.752
rtibia 81.016
rfoot 25.1239 -14.6502
rtoes 20.3628
lfemur -25.1128 -3.51837 -20.862
ltibia 27.6544
lfoot 2.10595 -14.6061
ltoes -4.86525
34
root -0.673886 18.1512 -15.0961 -0.63191 8.63262 -4.24862
lowerback 15.6528 0.742874 3.57922
upperback -0.707719 1.78115 1.26588
thorax -9.51428 0.710874 -1.0792
lowerneck -18.2031 -5.43684 -1.74899
upperneck 15.3823 -7.68415 3.75251
head 7.96638 -3.37462 0.595373
rclavicle -1.4415e-014 3.10601e-015
rhumerus -47.8797 15.6387 -101.582
rradius 108.977
rwrist -8.09171
rhand -18.3413 39.7941
rfingers 7.12502
rthumb 7.94097 9.96328
lclavicle -1.4415e-014 3.10601e-015
lhumerus -65.9619 -9.66924 99.4082
lradius 103.56
lwrist 32.0728
lhand -24.9056 -0.30872
lfingers 7.12502
lthumb 1.60277 29.665
rfemur -1.44234 -1.13388 29.862
rtibia 84.8786
rfoot 21.8204 -14.8175
rtoes 10.2177
lfemur -24.9162 -4.20656 -20.9697
ltibia 30.8549
lfoot -2.60132 -15.7213
ltoes -2.75951
35
root -0.661144 18.004 -14.5917 -0.81614 8.42016 -4.17226
lowerback 15.6666 0.706461 3.40165
upperback -0.521058 1.69255 1.25279
thorax -9.32469 0.682228 -0.971362
lowerneck -18.5325 -5.37861 -1.8223
upperneck 15.5049 -7.61472 3.8883
head 8.07132 -3.32411 0.650823
rclavicle 1.45579e-014 5.31749e-015
rhumerus -48.2578 15.1832 -101.721
rradius 107.662
rwrist -7.59685
rhand -18.7456 40.0832
rfingers 7.12502
rthumb 7.55069 10.238
lclavicle 1.45579e-014 5.31749e-015
lhumerus -64.4577 -10.5047 99.678
lradius 103.65
lwrist 32.2641
lhand -25.2414 0.372857
lfingers 7.12502
lthumb 1.27838 30.3488
rfemur -3.47355 -1.84435 28.9503
rtibia 88.7252
rfoot 21.9593 -14.5416
rtoes 15.4952
lfemur -25.0863 -4.41128 -21.0093
ltibia 34.358
lfoot -3.34874 -14.5495
ltoes 7.51426
36
root -0.652815 17.8384 -14.108 -1.07902 7.59514 -4.09868
lowerback 15.9441 0.889515 3.08381
upperback -0.340755 1.88168 1.24625
thorax -9.28624 0.789682 -0.847063
lowerneck -18.6376 -5.33856 -1.76667
upperneck 15.4046 -7.58305 3.9607
head 8.05612 -3.29861 0.668529
rclavicle 3.32374e-014 1.15544e-014
rhumerus -48.4729 14.8338 -101.759
rradius 106.277
rwrist -7.68575
rhand -18.5948 41.1756
rfingers 7.12502
rthumb 7.69622 11.3357
lclavicle 3.32374e-014 1.15544e-014
lhumerus -62.882 -11.4364 99.9318
lradius 103.824
lwrist 32.8243
lhand -25.8456 0.810553
lfingers 7.12502
lthumb 0.694889 30.7892
rfemur -5.55063 -1.90071 28.1231
rtibia 92.4962
rfoot 21.5653 -14.0593
rtoes 17.8475
lfemur -24.475 -3.79984 -21.2358
ltibia 37.8688
lfoot -8.04528 -12.9327
ltoes 1.56349
37
root -0.641987 17.6832 -13.6387 -1.44343 6.87378 -3.88608
lowerback 16.4973 1.07087 2.76877
upperback -0.0810292 2.06722 1.15201
thorax -9.31492 0.891522 -0.824832
lowerneck -18.9571 -5.34625 -1.69142
upperneck 15.2429 -7.6203 4.05163
head 8.05929 -3.30018 0.676018
rclavicle 2.66479e-014 6.00159e-015
rhumerus -48.4543 14.4035 -101.753
rradius 104.673
rwrist -7.87791
rhand -19.7216 40.7391
rfingers 7.12502
rthumb 6.60855 10.8622
lclavicle 2.66479e-014 6.00159e-015
lhumerus -61.0847 -12.5452 100.141
lradius 104.073
lwrist 33.4506
lhand -25.8562 0.797487
lfingers 7.12502
lthumb 0.684607 30.7761
rfemur -7.63807 -2.10908 27.0496
rtibia 96.099
rfoot 21.0732 -13.1636
rtoes 16.7553
lfemur -23.7515 -3.50183 -21.6148
ltibia 40.9596
lfoot -11.7705 -10.7114
ltoes -1.54943
38
root -0.633843 17.603 -13.1527 -1.48497 6.78482 -3.37917
lowerback 16.813 1.0342 2.16876
upperback 0.100265 1.89132 0.978477
thorax -9.31183 0.831471 -0.635754
lowerneck -19.3797 -5.34123 -1.46318
upperneck 15.1355 -7.65294 3.97981
head 8.08468 -3.30452 0.603193
rclavicle -1.15544e-015 2.67117e-014
rhumerus -48.8599 13.8378 -101.931
rradius 103.032
rwrist -6.7572
rhand -22.3451 38.4019
rfingers 7.12502
rthumb 4.07553 8.46109
lclavicle -1.15544e-015 2.67117e-014
lhumerus -59.0539 -13.5498 100.208
lradius 104.294
lwrist 34.1282
lhand -25.9768 1.18588
lfingers 7.12502
lthumb 0.568199 31.1649
rfemur -10.0579 -2.98703 25.5861
rtibia 99.185
rfoot 20.9644 -11.6237
rtoes 14.0711
lfemur -23.0457 -3.75309 -22.2671
ltibia 43.41
lfoot -14.5749 -9.05596
ltoes 1.01154
39
root -0.646645 17.4749 -12.6859 -1.14203 6.63228 -2.51961
lowerback 16.8436 1.03033 0.900136
upperback 0.150472 1.62154 0.806412
thorax -9.30929 0.7563 -0.0369028
lowerneck -19.7027 -5.2541 -1.36746
upperneck 15.0879 -7.55396 3.96939
head 8.11718 -3.24862 0.590436
rclavicle -1.14767e-014 1.44864e-014
rhumerus -49.2373 13.3248 -101.865
rradius 101.655
rwrist -6.52056
rhand -22.2466 37.4437
rfingers 7.12502
rthumb 4.17067 7.50483
lclavicle -1.14767e-014 1.44864e-014
lhumerus -56.9088 -14.2326 100.177
lradius 104.53
lwrist 34.9013
lhand -24.961 0.0562893
lfingers 7.12502
lthumb 1.54927 30.0304
rfemur -13.3077 -3.78612 23.9024
rtibia 102.407
rfoot 20.9979 -9.95281
rtoes 15.0417
lfemur -22.3723 -3.79777 -23.2989
ltibia 45.081
lfoot -17.1525 -7.68982
ltoes 2.09652
40
root -0.648452 17.3439 -12.2305 -0.91968 5.83812 -1.19735
lowerback 17.2171 1.28897 -0.673282
upperback 0.104994 1.61571 0.405843
thorax -9.60202 0.814377 0.416154
lowerneck -19.7993 -5.2 -1.38528
upperneck 15.0818 -7.52709 4.23302
head 8.14386 -3.20781 0.681813
rclavicle 2.01269e-014 -1.2921e-015
rhumerus -49.7117 12.5337 -101.741
rradius 100.855
rwrist -7.75565
rhand -20.1174 38.0115
rfingers 7.12502
rthumb 6.22648 8.12299
lclavicle 2.01269e-014 -1.2921e-015
lhumerus -54.9753 -14.9385 99.9882
lradius 104.801
lwrist 35.3404
lhand -23.8128 0.554185
lfingers 7.12502
lthumb 2.65814 30.5174
rfemur -16.7379 -3.9532 21.679
rtibia 105.492
rfoot 21.481 -7.94831
rtoes 20.7458
lfemur -20.5765 -3.28761 -24.9404
ltibia 45.9609
lfoot -20.1207 -4.83922
ltoes -2.11361
41
root -0.630685 17.2345 -11.759 -0.96295 5.15775 0.791789
lowerback 17.6077 1.55737 -2.67643
upperback 0.193416 1.49791 -0.208231
thorax -9.76052 0.836121 0.910007
lowerneck -19.6723 -5.10321 -1.33844
upperneck 14.8112 -7.42929 4.41357
head 8.03506 -3.14863 0.752568
rclavicle 2.33572e-014 -1.08338e-014
rhumerus -50.4856 11.7694 -101.741
rradius 100.217
rwrist -8.25201
rhand -19.2349 38.6576
rfingers 7.12502
rthumb 7.07843 8.79594
lclavicle 2.33572e-014 -1.08338e-014
lhumerus -52.9132 -15.6706 99.7454
lradius 105.012
lwrist 35.4325
lhand -25.7582 4.14566
lfingers 7.12502
lthumb 0.779289 34.124
rfemur -19.6226 -4.28145 18.4652
rtibia 108.128
rfoot 21.902 -5.64398
rtoes 27.2477
lfemur -18.3614 -3.00142 -27.4118
ltibia 46.4882
lfoot -22.3734 -2.37375
ltoes -3.10323
42
root -0.621689 17.1224 -11.3045 -0.764049 4.94889 2.02901
lowerback 17.7077 1.54194 -4.01056
upperback 0.242862 1.17043 -0.51733
thorax -9.77297 0.734902 1.41459
lowerneck -19.6359 -4.95345 -1.35439
upperneck 14.5087 -7.23187 4.56064
head 7.92885 -3.04863 0.832976
rclavicle -1.80521e-014 -5.96354e-015
rhumerus -51.1192 11.3504 -101.602
rradius 99.5201
rwrist -7.99749
rhand -18.6895 38.8312
rfingers 7.12502
rthumb 7.6049 8.98797
lclavicle -1.80521e-014 -5.96354e-015
lhumerus -50.5579 -16.2929 99.441
lradius 105.176
lwrist 35.3259
lhand -26.8477 4.83504
lfingers 7.12502
lthumb -0.272964 34.8146
rfemur -23.0317 -5.13948 16.4301
rtibia 110.387
rfoot 17.9856 -5.52988
rtoes 14.1733
lfemur -17.0328 -3.01953 -28.963
ltibia 46.7576
lfoot -23.61 -0.734065
ltoes -1.11115
43
root -0.617168 17.0121 -10.8737 -0.303655 4.69565 1.86413
lowerback 17.6407 1.34433 -4.04288
upperback 0.14321 0.920504 -0.341861
thorax -9.83479 0.624797 1.68903
lowerneck -19.506 -4.8333 -1.52048
upperneck 14.0741 -6.99029 4.52283
head 7.75834 -2.95939 0.884522
rclavicle 4.73356e-015 7.65321e-015
rhumerus -51.8971 11.1348 -101.297
rradius 99.2438
rwrist -7.23255
rhand -17.9727 38.8516
rfingers 7.12502
rthumb 8.29668 9.0345
lclavicle 4.73356e-015 7.65321e-015
lhumerus -48.1813 -16.5195 99.1563
lradius 105.492
lwrist 35.0636
lhand -27.5321 3.89721
lfingers 7.12502
lthumb -0.934021 33.8749
rfemur -27.2748 -5.85823 16.5636
rtibia 112.241
rfoot 17.1634 -4.73853
rtoes 12.8846
lfemur -15.8195 -3.19542 -28.8508
ltibia 47.0424
lfoot -25.1071 1.09779
ltoes 0.570603
44
root -0.606024 16.9403 -10.4231 0.180722 4.32135 1.29964
lowerback 17.3103 1.17532 -3.60939
upperback 0.178043 0.826103 -0.0864197
thorax -9.60031 0.562235 1.74925
lowerneck -19.9619 -4.78681 -1.64866
upperneck 13.9567 -6.87041 4.46717
head 7.79437 -2.90956 0.893902
rclavicle -3.43525e-015 -7.7526e-015
rhumerus -52.5207 10.9996 -100.991
rradius 99.3382
rwrist -6.58589
rhand -17.7786 39.2953
rfingers 7.12502
rthumb 8.48396 9.48572
lclavicle -3.43525e-015 -7.7526e-015
lhumerus -45.6183 -16.6586 98.7734
lradius 105.985
lwrist 34.7719
lhand -27.4242 4.53273
lfingers 7.12502
lthumb -0.82976 34.5109
rfemur -31.2212 -6.3104 17.3733
rtibia 113.305
rfoot 16.3154 -3.9948
rtoes 4.2257
lfemur -14.5634 -3.30609 -28.3026
ltibia 47.1119
lfoot -26.5301 2.19193
ltoes 0.676506
45
root -0.591695 16.9118 -9.95498 0.437908 4.35318 0.971604
lowerback 17.1047 0.81826 -3.44132
upperback 0.312869 0.431812 0.260686
thorax -9.31324 0.369382 2.13199
lowerneck -20.3598 -4.56292 -1.9617
upperneck 13.9382 -6.44617 4.33669
head 7.84642 -2.73225 0.948099
rclavicle 4.14963e-015 3.91357e-016
rhumerus -53.3871 11.2411 -100.64
rradius 100.032
rwrist -6.64241
rhand -17.4973 39.7696
rfingers 7.12502
rthumb 8.7555 9.9712
lclavicle 4.14963e-015 3.91357e-016
lhumerus -43.1104 -16.2932 98.4996
lradius 106.854
lwrist 34.6382
lhand -25.6059 5.15631
lfingers 7.12502
lthumb 0.926393 35.134
rfemur -34.6356 -7.02067 17.9563
rtibia 113.585
rfoot 15.4557 -3.3024
rtoes 2.64151
lfemur -12.8558 -3.60105 -28.0198
ltibia 46.8856
lfoot -27.4849 2.76257
ltoes 0.0268455
46
root -0.578016 16.9114 -9.48704 0.561413 4.53798 0.787025
lowerback 17.2725 0.44046 -3.39276
upperback 0.398343 -0.0313935 0.592505
thorax -9.28343 0.152882 2.5806
lowerneck -20.6292 -4.35097 -2.17045
upperneck 13.9436 -6.02358 3.97109
head 7.87225 -2.57637 0.910489
rclavicle 7.70291e-015 -4.96962e-017
rhumerus -54.339 11.4376 -100.187
rradius 101.161
rwrist -7.57286
rhand -16.7374 39.8013
rfingers 7.12502
rthumb 9.48873 10.0349
lclavicle 7.70291e-015 -4.96962e-017
lhumerus -40.7289 -15.9036 98.373
lradius 107.701
lwrist 34.8846
lhand -24.6967 4.9166
lfingers 7.12502
lthumb 1.80446 34.8887
rfemur -37.7343 -7.66525 18.4366
rtibia 113.234
rfoot 15.6449 -2.03894
rtoes 8.53047
lfemur -10.7785 -3.98715 -27.9009
ltibia 46.1273
lfoot -27.7763 3.32553
ltoes -2.08636
47
root -0.570126 16.9203 -9.01639 0.544719 4.29477 0.812458
lowerback 17.6993 0.460752 -3.48914
upperback 0.528482 -0.0392061 0.576348
thorax -9.37926 0.153221 2.62235
lowerneck -21.389 -4.3527 -1.67232
upperneck 14.1388 -6.09372 3.57044
head 8.03739 -2.60889 0.67422
rclavicle 9.19379e-016 -1.00883e-014
rhumerus -55.0419 10.7401 -99.9131
rradius 102.282
rwrist -8.58426
rhand -16.4902 39.9478
rfingers 7.12502
rthumb 9.72718 10.1924
lclavicle 9.19379e-016 -1.00883e-014
lhumerus -38.4428 -16.3697 98.0065
lradius 108.235
lwrist 35.1831
lhand -23.6363 2.70203
lfingers 7.12502
lthumb 2.82865 32.663
rfemur -40.1786 -7.66125 18.7427
rtibia 112.446
rfoot 12.6405 -1.15608
rtoes -0.485089
lfemur -8.35393 -3.91279 -28.0468
ltibia 45.017
lfoot -27.6877 3.9912
ltoes -5.50083
